<?xml version="1.0" encoding="utf-8"?>
<!-- Generator: Adobe Illustrator 18.0.0, SVG Export Plug-In . SVG Version: 6.00 Build 0)  -->
<!DOCTYPE svg PUBLIC "-//W3C//DTD SVG 1.1//EN" "http://www.w3.org/Graphics/SVG/1.1/DTD/svg11.dtd">
<svg version="1.1" id="Layer_1" xmlns="http://www.w3.org/2000/svg" xmlns:xlink="http://www.w3.org/1999/xlink" x="0px" y="0px"
	 viewBox="0 0 1024 1024" enable-background="new 0 0 1024 1024" xml:space="preserve">
<circle fill="#4DC1B6" cx="512" cy="512" r="500.4"/>
<g>
	<rect x="698.9" y="563.6" width="221" height="42.8"/>
	<rect x="540.1" y="289.5" transform="matrix(0.5 -0.866 0.866 0.5 56.0854 718.8501)" width="221" height="42.8"/>
	<rect x="652.5" y="407.6" transform="matrix(0.866 -0.5 0.5 0.866 -112.2953 438.9677)" width="221" height="42.8"/>
	<path stroke="#000000" stroke-miterlimit="10" d="M453.8,606.8L542.7,451L434.6,277L232.2,500L124,474.7l29.4,114.9l-49.3,53.1
		l310.2,133.5l152.1-169.3H453.8z M333.9,542.2c-19,0-34.4-15.4-34.4-34.4c0-19,15.4-34.4,34.4-34.4c19,0,34.4,15.4,34.4,34.4
		C368.4,526.8,352.9,542.2,333.9,542.2z"/>
</g>
</svg>
